<svg width="32" height="32" viewBox="0 0 32 32" fill="none" xmlns="http://www.w3.org/2000/svg">
<path fill-rule="evenodd" clip-rule="evenodd" d="M15.3333 1.33334C14.597 1.33334 14 1.9303 14 2.66668V4.00001H13.3333C9.65153 4.00001 6.66665 6.98434 6.66665 10.6663V14.6667C6.66665 15.6503 6.35624 16.763 5.86319 17.8864C5.37553 18.9976 4.74501 20.0392 4.18856 20.8586C3.17584 22.3499 3.80288 24.7068 5.87419 25.0804C7.22859 25.3247 9.14269 25.6154 11.3954 25.8036C11.3927 25.8687 11.3914 25.9342 11.3914 26C11.3914 28.5773 13.4807 30.6667 16.058 30.6667C18.6354 30.6667 20.7247 28.5773 20.7247 26C20.7247 25.9309 20.7232 25.8622 20.7202 25.7938C22.9228 25.6054 24.7946 25.3205 26.1258 25.0804C28.1971 24.7068 28.8241 22.3499 27.8114 20.8586C27.255 20.0392 26.6244 18.9976 26.1368 17.8864C25.6437 16.763 25.3333 15.6503 25.3333 14.6667V10.6663C25.3333 6.98434 22.3484 4.00001 18.6667 4.00001H18V2.66668C18 1.9303 17.403 1.33334 16.6667 1.33334H15.3333ZM16 26C16.6817 26 17.3496 25.9864 17.9997 25.962C18.0102 27.0344 17.1389 27.942 16.058 27.942C14.9796 27.942 14.1071 27.0371 14.1163 25.9662C14.7298 25.988 15.3588 26 16 26ZM13.3333 6.66668C11.1241 6.66668 9.33332 8.45732 9.33332 10.6663V14.6667C9.33332 16.1646 8.87397 17.6618 8.30504 18.9581C7.73072 20.2667 7.00705 21.4549 6.39466 22.3567C6.38104 22.3767 6.3747 22.3959 6.37255 22.4151C6.37063 22.4322 6.37226 22.4483 6.37556 22.4611C8.48588 22.8405 12.0006 23.3333 16 23.3333C19.9994 23.3333 23.5141 22.8405 25.6244 22.4611C25.6277 22.4483 25.6293 22.4322 25.6274 22.4151C25.6253 22.3959 25.6189 22.3767 25.6053 22.3567C24.9929 21.4549 24.2692 20.2667 23.6949 18.9581C23.126 17.6618 22.6666 16.1646 22.6666 14.6667V10.6663C22.6666 8.45732 20.8759 6.66668 18.6667 6.66668H13.3333Z" fill="#0F0F0F"/>
</svg>
