<svg width="32" height="32" viewBox="0 0 32 32" fill="none" xmlns="http://www.w3.org/2000/svg">
<path fill-rule="evenodd" clip-rule="evenodd" d="M15.3333 1.3334C14.597 1.3334 14 1.93036 14 2.66674V4.00007H13.3333C9.65152 4.00007 6.66665 6.9844 6.66665 10.6664V14.6667C6.66665 15.6504 6.35624 16.7631 5.86318 17.8865C5.37553 18.9977 4.74501 20.0392 4.18856 20.8587C3.17584 22.35 3.80287 24.7069 5.87419 25.0804C7.22859 25.3247 9.14268 25.6154 11.3954 25.8036C11.3927 25.8688 11.3914 25.9343 11.3914 26.0001C11.3914 28.5774 13.4807 30.6667 16.058 30.6667C18.6354 30.6667 20.7247 28.5774 20.7247 26.0001C20.7247 25.931 20.7232 25.8622 20.7202 25.7939C22.9228 25.6055 24.7946 25.3205 26.1258 25.0804C28.1971 24.7069 28.8241 22.35 27.8114 20.8587C27.255 20.0392 26.6244 18.9977 26.1368 17.8865C25.6437 16.7631 25.3333 15.6504 25.3333 14.6667V10.6664C25.3333 6.9844 22.3484 4.00007 18.6666 4.00007H18V2.66674C18 1.93036 17.403 1.3334 16.6667 1.3334H15.3333ZM16 26.0001C16.6817 26.0001 17.3496 25.9865 17.9997 25.962C18.0102 27.0345 17.1389 27.9421 16.058 27.9421C14.9796 27.9421 14.1071 27.0372 14.1163 25.9663C14.7298 25.9881 15.3588 26.0001 16 26.0001ZM13.3333 6.66674C11.1241 6.66674 9.33332 8.45738 9.33332 10.6664V14.6667C9.33332 16.1647 8.87396 17.6618 8.30504 18.9582C7.73072 20.2668 7.00705 21.4549 6.39465 22.3567C6.38104 22.3768 6.3747 22.396 6.37254 22.4152C6.37062 22.4323 6.37226 22.4484 6.37556 22.4612C8.48587 22.8405 12.0006 23.3334 16 23.3334C19.9994 23.3334 23.5141 22.8405 25.6244 22.4612C25.6277 22.4484 25.6293 22.4323 25.6274 22.4152C25.6253 22.396 25.6189 22.3768 25.6053 22.3567C24.9929 21.4549 24.2692 20.2668 23.6949 18.9582C23.126 17.6618 22.6666 16.1647 22.6666 14.6667V10.6664C22.6666 8.45738 20.8759 6.66674 18.6666 6.66674H13.3333Z" fill="#0F0F0F"/>
<path fill-rule="evenodd" clip-rule="evenodd" d="M21.3731 1.01002C21.5496 0.304171 22.2861 -0.136544 22.9916 0.0402602C23.0841 0.0635599 23.1718 0.0893789 23.3221 0.139929C23.506 0.201758 23.7577 0.295387 24.0565 0.429546C24.6525 0.69714 25.4468 1.13092 26.2643 1.80417C27.9242 3.17117 29.6215 5.48182 29.9934 9.20075C30.0667 9.93348 29.5321 10.5869 28.7993 10.6601C28.0666 10.7334 27.4132 10.1988 27.34 9.46609C27.0452 6.51834 25.7425 4.82899 24.5691 3.86265C23.9699 3.36923 23.3891 3.053 22.9643 2.86226C22.7527 2.76726 22.5826 2.70463 22.4721 2.66751C22.4268 2.65225 22.3812 2.63786 22.3351 2.62485C21.6256 2.44279 21.1952 1.72168 21.3731 1.01002Z" fill="#0F0F0F"/>
<path fill-rule="evenodd" clip-rule="evenodd" d="M10.6269 1.01002C10.4483 0.295631 9.72435 -0.138717 9.00995 0.0398811C8.91687 0.0632105 8.82901 0.0891028 8.67788 0.139929C8.49401 0.201758 8.24227 0.295386 7.94346 0.429545C7.34746 0.697138 6.55324 1.13091 5.73572 1.80416C4.0758 3.17116 2.37851 5.48181 2.00662 9.20073C1.93334 9.93346 2.46794 10.5868 3.20066 10.6601C3.93339 10.7334 4.58678 10.1988 4.66005 9.46608C4.95482 6.51833 6.25753 4.82898 7.43094 3.86264C8.03009 3.36923 8.61087 3.053 9.0357 2.86226C9.24731 2.76726 9.41745 2.70463 9.52786 2.66751C9.57322 2.65225 9.61884 2.63786 9.6649 2.62485C10.3744 2.44279 10.8048 1.72168 10.6269 1.01002Z" fill="#0F0F0F"/>
</svg>
